<svg width="87" height="39" viewBox="0 0 87 39" fill="none" xmlns="http://www.w3.org/2000/svg">
<path d="M18.5068 38.7324C15.9515 38.7324 13.6159 38.2604 11.5 37.3164C9.38411 36.3561 7.49609 34.9971 5.83594 33.2393C4.17578 31.4814 2.91439 29.3981 2.05176 26.9893C1.18913 24.5804 0.757812 22.082 0.757812 19.4941C0.757812 16.8249 1.18913 14.3184 2.05176 11.9746C2.93066 9.63086 4.15137 7.59635 5.71387 5.87109C7.29264 4.12956 9.16439 2.76237 11.3291 1.76953C13.5101 0.760417 15.9027 0.255859 18.5068 0.255859C21.1273 0.255859 23.528 0.760417 25.709 1.76953C27.89 2.76237 29.7617 4.12956 31.3242 5.87109C32.8867 7.59635 34.0993 9.63086 34.9619 11.9746C35.8245 14.3184 36.2559 16.8249 36.2559 19.4941C36.2559 22.1634 35.8164 24.6699 34.9375 27.0137C34.0749 29.3411 32.8542 31.3757 31.2754 33.1172C29.7129 34.8587 27.8411 36.234 25.6602 37.2432C23.4954 38.236 21.111 38.7324 18.5068 38.7324ZM18.5068 34.1914C20.4437 34.1914 22.1934 33.7926 23.7559 32.9951C25.3346 32.1976 26.6774 31.1315 27.7842 29.7969C28.891 28.446 29.7454 26.8835 30.3477 25.1094C30.9499 23.3353 31.251 21.4635 31.251 19.4941C31.251 17.4759 30.9173 15.5309 30.25 13.6592C29.599 11.7712 28.6794 10.1761 27.4912 8.87402C26.3193 7.57194 24.9521 6.57096 23.3896 5.87109C21.8271 5.15495 20.1995 4.79688 18.5068 4.79688C16.57 4.79688 14.8122 5.19564 13.2334 5.99316C11.6546 6.79069 10.3118 7.86491 9.20508 9.21582C8.09831 10.5505 7.24382 12.113 6.6416 13.9033C6.03939 15.6774 5.73828 17.541 5.73828 19.4941C5.73828 21.7728 6.07194 23.8073 6.73926 25.5977C7.40658 27.3717 8.28548 28.8529 9.37598 30.041C10.4827 31.2129 11.793 32.1976 13.3066 32.9951C14.8366 33.7926 16.57 34.1914 18.5068 34.1914ZM41.5049 33.8008H45.0205V5.21191H41.5049V0.939453L58.1553 0.988281C59.6527 0.988281 61.0605 1.27311 62.3789 1.84277C63.6973 2.39616 64.8447 3.16113 65.8213 4.1377C66.7979 5.09798 67.5628 6.2373 68.1162 7.55566C68.6859 8.87402 68.9707 10.29 68.9707 11.8037C68.9707 13.3825 68.5312 14.8229 67.6523 16.125C66.7734 17.4271 65.5202 18.4688 63.8926 19.25C64.6901 19.6732 65.4144 20.1696 66.0654 20.7393C66.7165 21.2926 67.2699 21.903 67.7256 22.5703C68.1813 23.2376 68.5312 23.9456 68.7754 24.6943C69.0358 25.443 69.166 26.208 69.166 26.9893C69.166 28.5355 68.8812 29.9759 68.3115 31.3105C67.7581 32.6452 66.9932 33.8089 66.0166 34.8018C65.04 35.7946 63.8926 36.5758 62.5742 37.1455C61.2721 37.7152 59.8724 38 58.375 38H41.5049V33.8008ZM49.8057 21.5449V33.8008H58.4238C59.2051 33.8008 59.9294 33.6055 60.5967 33.2148C61.264 32.8242 61.8499 32.3197 62.3545 31.7012C62.859 31.0664 63.2497 30.3503 63.5264 29.5527C63.8193 28.7552 63.9658 27.9414 63.9658 27.1113C63.9658 26.3952 63.8193 25.7035 63.5264 25.0361C63.2334 24.3688 62.8346 23.7747 62.3301 23.2539C61.8418 22.7331 61.2559 22.318 60.5723 22.0088C59.9049 21.6995 59.1888 21.5449 58.4238 21.5449H49.8057ZM49.8057 5.21191V17.2969H58.2041C58.9854 17.2969 59.7096 17.1423 60.377 16.833C61.0605 16.5238 61.6465 16.1087 62.1348 15.5879C62.6393 15.0671 63.0381 14.4648 63.3311 13.7812C63.624 13.0977 63.7705 12.3896 63.7705 11.6572C63.7705 10.8597 63.624 10.0785 63.3311 9.31348C63.0381 8.53223 62.6393 7.84049 62.1348 7.23828C61.6302 6.63607 61.0361 6.14779 60.3525 5.77344C59.6852 5.39909 58.9691 5.21191 58.2041 5.21191H49.8057ZM74.5127 0.988281H86.3291V5.21191H82.8135V33.8008H86.3291V38H74.5127V33.8008H78.0283V5.21191H74.5127V0.988281Z" fill="white"/>
</svg>
